<svg width="266" height="24" viewBox="0 0 266 24" fill="none" xmlns="http://www.w3.org/2000/svg">
<g filter="url(#filter0_d_146_684)">
<path d="M29.7191 10.386C28.3066 13.8969 19.6297 14.5752 16.6029 14.5752C13.4829 14.5752 6.1002 14.01 5.10155 12.6027C5.02787 12.4989 5.12089 12.3809 5.24821 12.3801C19.0166 12.293 30.9513 5.00001 34.2594 5C40.5061 4.99998 42.5449 8.13211 44.2991 12.651C44.329 12.7282 44.3967 12.7798 44.4795 12.7798H119.263C126.471 12.7798 129.942 11.2716 131.028 10.0771C131.185 9.90423 132.349 9.12031 132.575 9.18081L145.713 12.7028C145.85 12.7396 145.902 12.9025 145.795 12.9952C143.309 15.1369 129.771 14.5752 119.263 14.5752H90.7603C77.559 14.5752 49.7446 13.7872 43.9512 14.9519C43.8793 14.9664 43.8324 15.0177 43.8081 15.087C42.4001 19.0945 29.2052 19.9252 23.8393 18.0298C23.7391 17.9944 23.6893 17.8876 23.7398 17.7941C24.4605 16.4599 28.7297 14.4612 33.7549 12.7798C40.3131 10.5855 31.4848 5.99742 29.7191 10.386Z" fill="white"/>
<path d="M29.7191 10.386C28.3066 13.8969 19.6297 14.5752 16.6029 14.5752C13.4829 14.5752 6.1002 14.01 5.10155 12.6027C5.02787 12.4989 5.12089 12.3809 5.24821 12.3801C19.0166 12.293 30.9513 5.00001 34.2594 5C40.5061 4.99998 42.5449 8.13211 44.2991 12.651C44.329 12.7282 44.3967 12.7798 44.4795 12.7798H119.263C126.471 12.7798 129.942 11.2716 131.028 10.0771C131.185 9.90423 132.349 9.12031 132.575 9.18081L145.713 12.7028C145.85 12.7396 145.902 12.9025 145.795 12.9952C143.309 15.1369 129.771 14.5752 119.263 14.5752H90.7603C77.559 14.5752 49.7446 13.7872 43.9512 14.9519C43.8793 14.9664 43.8324 15.0177 43.8081 15.087C42.4001 19.0945 29.2052 19.9252 23.8393 18.0298C23.7391 17.9944 23.6893 17.8876 23.7398 17.7941C24.4605 16.4599 28.7297 14.4612 33.7549 12.7798C40.3131 10.5855 31.4848 5.99742 29.7191 10.386Z" stroke="white"/>
</g>
<g filter="url(#filter1_d_146_684)">
<path d="M236.281 10.386C237.693 13.8969 246.37 14.5752 249.397 14.5752C252.517 14.5752 259.9 14.01 260.898 12.6027C260.972 12.4989 260.879 12.3809 260.752 12.3801C246.983 12.293 235.049 5.00001 231.741 5C225.494 4.99998 223.455 8.13211 221.701 12.651C221.671 12.7282 221.603 12.7798 221.521 12.7798H146.737C139.529 12.7798 136.058 11.2716 134.972 10.0771C134.815 9.90423 133.651 9.12031 133.425 9.18081L120.287 12.7028C120.15 12.7396 120.098 12.9025 120.205 12.9952C122.691 15.1369 136.229 14.5752 146.737 14.5752H175.24C188.441 14.5752 216.255 13.7872 222.049 14.9519C222.121 14.9664 222.168 15.0177 222.192 15.087C223.6 19.0945 236.795 19.9252 242.161 18.0298C242.261 17.9944 242.311 17.8876 242.26 17.7941C241.54 16.4599 237.27 14.4612 232.245 12.7798C225.687 10.5855 234.515 5.99742 236.281 10.386Z" fill="white"/>
<path d="M236.281 10.386C237.693 13.8969 246.37 14.5752 249.397 14.5752C252.517 14.5752 259.9 14.01 260.898 12.6027C260.972 12.4989 260.879 12.3809 260.752 12.3801C246.983 12.293 235.049 5.00001 231.741 5C225.494 4.99998 223.455 8.13211 221.701 12.651C221.671 12.7282 221.603 12.7798 221.521 12.7798H146.737C139.529 12.7798 136.058 11.2716 134.972 10.0771C134.815 9.90423 133.651 9.12031 133.425 9.18081L120.287 12.7028C120.15 12.7396 120.098 12.9025 120.205 12.9952C122.691 15.1369 136.229 14.5752 146.737 14.5752H175.24C188.441 14.5752 216.255 13.7872 222.049 14.9519C222.121 14.9664 222.168 15.0177 222.192 15.087C223.6 19.0945 236.795 19.9252 242.161 18.0298C242.261 17.9944 242.311 17.8876 242.26 17.7941C241.54 16.4599 237.27 14.4612 232.245 12.7798C225.687 10.5855 234.515 5.99742 236.281 10.386Z" stroke="white"/>
</g>
<defs>
<filter id="filter0_d_146_684" x="0.575684" y="0.5" width="149.776" height="23" filterUnits="userSpaceOnUse" color-interpolation-filters="sRGB">
<feFlood flood-opacity="0" result="BackgroundImageFix"/>
<feColorMatrix in="SourceAlpha" type="matrix" values="0 0 0 0 0 0 0 0 0 0 0 0 0 0 0 0 0 0 127 0" result="hardAlpha"/>
<feOffset/>
<feGaussianBlur stdDeviation="2"/>
<feComposite in2="hardAlpha" operator="out"/>
<feColorMatrix type="matrix" values="0 0 0 0 0.480833 0 0 0 0 0.9377 0 0 0 0 1 0 0 0 0.5 0"/>
<feBlend mode="normal" in2="BackgroundImageFix" result="effect1_dropShadow_146_684"/>
<feBlend mode="normal" in="SourceGraphic" in2="effect1_dropShadow_146_684" result="shape"/>
</filter>
<filter id="filter1_d_146_684" x="115.648" y="0.5" width="149.776" height="23" filterUnits="userSpaceOnUse" color-interpolation-filters="sRGB">
<feFlood flood-opacity="0" result="BackgroundImageFix"/>
<feColorMatrix in="SourceAlpha" type="matrix" values="0 0 0 0 0 0 0 0 0 0 0 0 0 0 0 0 0 0 127 0" result="hardAlpha"/>
<feOffset/>
<feGaussianBlur stdDeviation="2"/>
<feComposite in2="hardAlpha" operator="out"/>
<feColorMatrix type="matrix" values="0 0 0 0 0.480833 0 0 0 0 0.9377 0 0 0 0 1 0 0 0 0.5 0"/>
<feBlend mode="normal" in2="BackgroundImageFix" result="effect1_dropShadow_146_684"/>
<feBlend mode="normal" in="SourceGraphic" in2="effect1_dropShadow_146_684" result="shape"/>
</filter>
</defs>
</svg>
